<mxfile host="65bd71144e">
    <diagram id="6cFT4WeR4OX0mbMKUrA-" name="Page-1">
        <mxGraphModel dx="2379" dy="1494" grid="1" gridSize="10" guides="1" tooltips="1" connect="1" arrows="1" fold="1" page="1" pageScale="1" pageWidth="850" pageHeight="1100" math="0" shadow="0">
            <root>
                <mxCell id="0"/>
                <mxCell id="1" parent="0"/>
                <mxCell id="5" style="edgeStyle=none;html=1;entryX=0.502;entryY=0.051;entryDx=0;entryDy=0;entryPerimeter=0;" parent="1" source="7" target="16" edge="1">
                    <mxGeometry relative="1" as="geometry">
                        <Array as="points">
                            <mxPoint x="1420" y="490"/>
                        </Array>
                        <mxPoint x="1420" y="550" as="targetPoint"/>
                    </mxGeometry>
                </mxCell>
                <mxCell id="6" style="edgeStyle=none;html=1;entryX=0.5;entryY=0;entryDx=0;entryDy=0;" parent="1" source="7" target="11" edge="1">
                    <mxGeometry relative="1" as="geometry">
                        <Array as="points">
                            <mxPoint x="1080" y="490"/>
                        </Array>
                    </mxGeometry>
                </mxCell>
                <mxCell id="7" value="" style="rhombus;whiteSpace=wrap;html=1;shadow=1;fillColor=#a20025;strokeColor=#6F0000;fontColor=#ffffff;" parent="1" vertex="1">
                    <mxGeometry x="1220" y="450" width="140" height="80" as="geometry"/>
                </mxCell>
                <mxCell id="8" value="" style="ellipse;whiteSpace=wrap;html=1;fillColor=#f5f5f5;strokeColor=#666666;gradientColor=#b3b3b3;" parent="1" vertex="1">
                    <mxGeometry x="1180" y="740" width="120" height="80" as="geometry"/>
                </mxCell>
                <mxCell id="11" value="" style="rounded=0;whiteSpace=wrap;html=1;fillColor=#dae8fc;strokeColor=#6c8ebf;gradientColor=#7ea6e0;" parent="1" vertex="1">
                    <mxGeometry x="1020" y="515" width="120" height="60" as="geometry"/>
                </mxCell>
                <mxCell id="13" style="edgeStyle=none;html=1;" parent="1" target="21" edge="1">
                    <mxGeometry relative="1" as="geometry">
                        <mxPoint x="1420" y="630" as="sourcePoint"/>
                        <Array as="points">
                            <mxPoint x="1420" y="670"/>
                        </Array>
                    </mxGeometry>
                </mxCell>
                <mxCell id="16" value="" style="rounded=0;whiteSpace=wrap;html=1;fillColor=#dae8fc;strokeColor=#6c8ebf;gradientColor=#7ea6e0;" parent="1" vertex="1">
                    <mxGeometry x="1360" y="560" width="120" height="60" as="geometry"/>
                </mxCell>
                <mxCell id="20" style="edgeStyle=none;html=1;" parent="1" source="21" target="8" edge="1">
                    <mxGeometry relative="1" as="geometry"/>
                </mxCell>
                <mxCell id="21" value="" style="shape=sumEllipse;perimeter=ellipsePerimeter;whiteSpace=wrap;html=1;backgroundOutline=1;fillColor=#d5e8d4;gradientColor=#97d077;strokeColor=#82b366;" parent="1" vertex="1">
                    <mxGeometry x="1225" y="655" width="30" height="30" as="geometry"/>
                </mxCell>
                <mxCell id="26" value="" style="ellipse;whiteSpace=wrap;html=1;fillColor=#f5f5f5;strokeColor=#666666;gradientColor=#b3b3b3;" parent="1" vertex="1">
                    <mxGeometry x="1230" y="30" width="120" height="80" as="geometry"/>
                </mxCell>
                <mxCell id="27" value="" style="edgeStyle=none;html=1;entryX=0.5;entryY=0;entryDx=0;entryDy=0;" parent="1" source="28" target="32" edge="1">
                    <mxGeometry relative="1" as="geometry">
                        <mxPoint x="1290" y="270" as="targetPoint"/>
                    </mxGeometry>
                </mxCell>
                <mxCell id="28" value="" style="rounded=0;whiteSpace=wrap;html=1;fillColor=#0050ef;fontColor=#ffffff;strokeColor=#001DBC;" parent="1" vertex="1">
                    <mxGeometry x="1230" y="180" width="120" height="60" as="geometry"/>
                </mxCell>
                <mxCell id="29" value="" style="edgeStyle=none;html=1;" parent="1" target="28" edge="1">
                    <mxGeometry relative="1" as="geometry">
                        <mxPoint x="1290" y="110" as="sourcePoint"/>
                    </mxGeometry>
                </mxCell>
                <mxCell id="30" value="&lt;h1&gt;Inicio&lt;/h1&gt;" style="text;html=1;strokeColor=none;fillColor=none;spacing=5;spacingTop=-20;whiteSpace=wrap;overflow=hidden;rounded=0;" parent="1" vertex="1">
                    <mxGeometry x="1255" y="50" width="70" height="40" as="geometry"/>
                </mxCell>
                <mxCell id="31" value="&lt;h1 style=&quot;font-size: 10px;&quot;&gt;caffee ,&amp;nbsp; agua , azucar,&lt;/h1&gt;&lt;div&gt;&lt;br&gt;&lt;/div&gt;" style="text;html=1;strokeColor=none;fillColor=none;spacing=5;spacingTop=-20;whiteSpace=wrap;overflow=hidden;rounded=0;fontSize=10;" parent="1" vertex="1">
                    <mxGeometry x="1270" y="190" width="70" height="40" as="geometry"/>
                </mxCell>
                <mxCell id="32" value="" style="rounded=0;whiteSpace=wrap;html=1;fillColor=#0050ef;fontColor=#ffffff;strokeColor=#001DBC;" parent="1" vertex="1">
                    <mxGeometry x="1230" y="280" width="120" height="60" as="geometry"/>
                </mxCell>
                <mxCell id="35" value="" style="edgeStyle=none;html=1;fontSize=10;" parent="1" source="33" target="7" edge="1">
                    <mxGeometry relative="1" as="geometry"/>
                </mxCell>
                <mxCell id="33" value="&lt;h1 style=&quot;font-size: 10px;&quot;&gt;cafe + agua&lt;/h1&gt;" style="text;html=1;strokeColor=none;fillColor=none;spacing=5;spacingTop=-20;whiteSpace=wrap;overflow=hidden;rounded=0;fontSize=10;" parent="1" vertex="1">
                    <mxGeometry x="1255" y="310" width="70" height="40" as="geometry"/>
                </mxCell>
                <mxCell id="34" value="&#10;&lt;h1 style=&quot;border-color: rgb(0, 0, 0); font-size: 10px;&quot;&gt;&amp;nbsp;azucar,&lt;/h1&gt;&lt;div style=&quot;border-color: rgb(0, 0, 0);&quot;&gt;&lt;br style=&quot;border-color: rgb(0, 0, 0); color: rgb(240, 240, 240); font-family: Helvetica; font-size: 10px; font-style: normal; font-variant-ligatures: normal; font-variant-caps: normal; font-weight: 400; letter-spacing: normal; orphans: 2; text-align: left; text-indent: 0px; text-transform: none; widows: 2; word-spacing: 0px; -webkit-text-stroke-width: 0px; background-color: rgb(42, 37, 47); text-decoration-thickness: initial; text-decoration-style: initial; text-decoration-color: initial;&quot;&gt;&#10;&#10;&lt;/div&gt;" style="text;html=1;strokeColor=none;fillColor=none;spacing=5;spacingTop=-20;whiteSpace=wrap;overflow=hidden;rounded=0;fontSize=10;" parent="1" vertex="1">
                    <mxGeometry x="1270" y="475" width="70" height="40" as="geometry"/>
                </mxCell>
                <mxCell id="39" value="&lt;br&gt;&lt;h1 style=&quot;border-color: rgb(0, 0, 0); font-size: 10px;&quot;&gt;cafe + agua + azucar = cafe con azucar&lt;/h1&gt;&lt;div style=&quot;border-color: rgb(0, 0, 0);&quot;&gt;&lt;br&gt;&lt;br&gt;&lt;/div&gt;" style="text;html=1;strokeColor=none;fillColor=none;spacing=5;spacingTop=-20;whiteSpace=wrap;overflow=hidden;rounded=0;fontSize=10;" parent="1" vertex="1">
                    <mxGeometry x="1385" y="570" width="75" height="50" as="geometry"/>
                </mxCell>
                <mxCell id="44" style="edgeStyle=none;html=1;entryX=0.226;entryY=0.433;entryDx=0;entryDy=0;entryPerimeter=0;fontSize=10;" parent="1" source="40" target="21" edge="1">
                    <mxGeometry relative="1" as="geometry">
                        <Array as="points">
                            <mxPoint x="1080" y="670"/>
                        </Array>
                    </mxGeometry>
                </mxCell>
                <mxCell id="40" value="&lt;br&gt;&lt;h1 style=&quot;border-color: rgb(0, 0, 0); font-size: 10px;&quot;&gt;cafe + agua&amp;nbsp; = cafe sin azucar&lt;/h1&gt;&lt;div style=&quot;border-color: rgb(0, 0, 0);&quot;&gt;&lt;br&gt;&lt;br&gt;&lt;/div&gt;" style="text;html=1;strokeColor=none;fillColor=none;spacing=5;spacingTop=-20;whiteSpace=wrap;overflow=hidden;rounded=0;fontSize=10;" parent="1" vertex="1">
                    <mxGeometry x="1042.5" y="520" width="75" height="50" as="geometry"/>
                </mxCell>
                <mxCell id="41" value="no" style="text;html=1;strokeColor=none;fillColor=none;spacing=5;spacingTop=-20;whiteSpace=wrap;overflow=hidden;rounded=0;fontSize=10;" parent="1" vertex="1">
                    <mxGeometry x="1160" y="475" width="30" height="10" as="geometry"/>
                </mxCell>
                <mxCell id="43" value="si" style="text;html=1;strokeColor=none;fillColor=none;spacing=5;spacingTop=-20;whiteSpace=wrap;overflow=hidden;rounded=0;fontSize=10;" parent="1" vertex="1">
                    <mxGeometry x="1375" y="475" width="30" height="10" as="geometry"/>
                </mxCell>
                <mxCell id="45" value="&lt;br&gt;&lt;h1 style=&quot;border-color: rgb(0, 0, 0); font-size: 10px;&quot;&gt;FIN&lt;/h1&gt;&lt;div style=&quot;border-color: rgb(0, 0, 0);&quot;&gt;&lt;br&gt;&lt;/div&gt;" style="text;html=1;strokeColor=none;fillColor=none;spacing=5;spacingTop=-20;whiteSpace=wrap;overflow=hidden;rounded=0;fontSize=10;" parent="1" vertex="1">
                    <mxGeometry x="1210" y="770" width="70" height="40" as="geometry"/>
                </mxCell>
                <mxCell id="72" value="" style="ellipse;whiteSpace=wrap;html=1;fillColor=#f5f5f5;strokeColor=#666666;gradientColor=#b3b3b3;" vertex="1" parent="1">
                    <mxGeometry x="2190" y="70" width="120" height="80" as="geometry"/>
                </mxCell>
                <mxCell id="73" value="" style="edgeStyle=none;html=1;entryX=0.5;entryY=0;entryDx=0;entryDy=0;" edge="1" parent="1" source="74" target="88">
                    <mxGeometry relative="1" as="geometry">
                        <mxPoint x="2250" y="320" as="targetPoint"/>
                    </mxGeometry>
                </mxCell>
                <mxCell id="74" value="" style="rounded=0;whiteSpace=wrap;html=1;fillColor=#0050ef;fontColor=#ffffff;strokeColor=#001DBC;" vertex="1" parent="1">
                    <mxGeometry x="2190" y="220" width="120" height="60" as="geometry"/>
                </mxCell>
                <mxCell id="75" value="" style="edgeStyle=none;html=1;" edge="1" parent="1" target="74">
                    <mxGeometry relative="1" as="geometry">
                        <mxPoint x="2250" y="150" as="sourcePoint"/>
                    </mxGeometry>
                </mxCell>
                <mxCell id="76" value="&lt;h1&gt;Inicio&lt;/h1&gt;" style="text;html=1;strokeColor=none;fillColor=none;spacing=5;spacingTop=-20;whiteSpace=wrap;overflow=hidden;rounded=0;" vertex="1" parent="1">
                    <mxGeometry x="2215" y="90" width="70" height="40" as="geometry"/>
                </mxCell>
                <mxCell id="77" value="&lt;h1 style=&quot;font-size: 10px;&quot;&gt;caffee ,&amp;nbsp; agua , azucar,&lt;/h1&gt;&lt;div&gt;leche , frio, caliente , hielos , temperatura , cuchara&amp;nbsp;&lt;/div&gt;&lt;div&gt;&lt;br&gt;&lt;/div&gt;" style="text;html=1;strokeColor=none;fillColor=none;spacing=5;spacingTop=-20;whiteSpace=wrap;overflow=hidden;rounded=0;fontSize=10;" vertex="1" parent="1">
                    <mxGeometry x="2190" y="230" width="120" height="50" as="geometry"/>
                </mxCell>
                <mxCell id="108" value="" style="edgeStyle=none;html=1;entryX=0;entryY=0.5;entryDx=0;entryDy=0;" edge="1" parent="1" source="88" target="114">
                    <mxGeometry relative="1" as="geometry">
                        <mxPoint x="2040" y="405.0000000000001" as="targetPoint"/>
                        <Array as="points">
                            <mxPoint x="2060" y="370"/>
                            <mxPoint x="2060" y="965"/>
                            <mxPoint x="2060" y="1190"/>
                        </Array>
                    </mxGeometry>
                </mxCell>
                <mxCell id="109" value="" style="edgeStyle=none;html=1;entryX=0.497;entryY=0.05;entryDx=0;entryDy=0;entryPerimeter=0;" edge="1" parent="1" source="88" target="116">
                    <mxGeometry relative="1" as="geometry">
                        <mxPoint x="2429.975" y="395" as="targetPoint"/>
                        <Array as="points">
                            <mxPoint x="2428" y="370"/>
                        </Array>
                    </mxGeometry>
                </mxCell>
                <mxCell id="88" value="" style="rhombus;whiteSpace=wrap;html=1;shadow=1;fillColor=#a20025;strokeColor=#6F0000;fontColor=#ffffff;" vertex="1" parent="1">
                    <mxGeometry x="2180" y="330" width="140" height="80" as="geometry"/>
                </mxCell>
                <mxCell id="89" value="&lt;h1 style=&quot;font-size: 10px;&quot;&gt;Quieres un coffee?&lt;/h1&gt;" style="text;html=1;strokeColor=none;fillColor=none;spacing=5;spacingTop=-20;whiteSpace=wrap;overflow=hidden;rounded=0;fontSize=10;" vertex="1" parent="1">
                    <mxGeometry x="2200" y="370" width="120" height="50" as="geometry"/>
                </mxCell>
                <mxCell id="110" value="&lt;h1 style=&quot;font-size: 10px;&quot;&gt;si&lt;/h1&gt;" style="text;html=1;strokeColor=none;fillColor=none;spacing=5;spacingTop=-20;whiteSpace=wrap;overflow=hidden;rounded=0;fontSize=10;" vertex="1" parent="1">
                    <mxGeometry x="2390" y="360" width="25" height="10" as="geometry"/>
                </mxCell>
                <mxCell id="111" value="&lt;h1 style=&quot;font-size: 10px;&quot;&gt;no&lt;/h1&gt;" style="text;html=1;strokeColor=none;fillColor=none;spacing=5;spacingTop=-20;whiteSpace=wrap;overflow=hidden;rounded=0;fontSize=10;" vertex="1" parent="1">
                    <mxGeometry x="2075" y="360" width="25" height="10" as="geometry"/>
                </mxCell>
                <mxCell id="112" value="" style="ellipse;whiteSpace=wrap;html=1;fillColor=#f5f5f5;strokeColor=#666666;gradientColor=#b3b3b3;" vertex="1" parent="1">
                    <mxGeometry x="2207.5" y="1410" width="120" height="80" as="geometry"/>
                </mxCell>
                <mxCell id="113" style="edgeStyle=none;html=1;" edge="1" parent="1" source="114" target="112">
                    <mxGeometry relative="1" as="geometry"/>
                </mxCell>
                <mxCell id="114" value="" style="shape=sumEllipse;perimeter=ellipsePerimeter;whiteSpace=wrap;html=1;backgroundOutline=1;fillColor=#d5e8d4;gradientColor=#97d077;strokeColor=#82b366;" vertex="1" parent="1">
                    <mxGeometry x="2255" y="1180" width="30" height="30" as="geometry"/>
                </mxCell>
                <mxCell id="115" value="&lt;br&gt;&lt;h1 style=&quot;border-color: rgb(0, 0, 0); font-size: 10px;&quot;&gt;FIN&lt;/h1&gt;&lt;div style=&quot;border-color: rgb(0, 0, 0);&quot;&gt;&lt;br&gt;&lt;/div&gt;" style="text;html=1;strokeColor=none;fillColor=none;spacing=5;spacingTop=-20;whiteSpace=wrap;overflow=hidden;rounded=0;fontSize=10;" vertex="1" parent="1">
                    <mxGeometry x="2245" y="1440" width="25" height="20" as="geometry"/>
                </mxCell>
                <mxCell id="121" style="edgeStyle=none;html=1;entryX=0.5;entryY=0;entryDx=0;entryDy=0;" edge="1" parent="1" source="116" target="118">
                    <mxGeometry relative="1" as="geometry">
                        <Array as="points">
                            <mxPoint x="2250" y="435"/>
                        </Array>
                    </mxGeometry>
                </mxCell>
                <mxCell id="123" style="edgeStyle=none;html=1;entryX=0.542;entryY=0.009;entryDx=0;entryDy=0;entryPerimeter=0;" edge="1" parent="1" source="116" target="119">
                    <mxGeometry relative="1" as="geometry">
                        <Array as="points">
                            <mxPoint x="2615" y="435"/>
                        </Array>
                    </mxGeometry>
                </mxCell>
                <mxCell id="116" value="" style="rhombus;whiteSpace=wrap;html=1;shadow=1;fillColor=#a20025;strokeColor=#6F0000;fontColor=#ffffff;" vertex="1" parent="1">
                    <mxGeometry x="2360" y="395" width="140" height="80" as="geometry"/>
                </mxCell>
                <mxCell id="117" value="&lt;h1 style=&quot;font-size: 10px;&quot;&gt;con leche ?&lt;/h1&gt;" style="text;html=1;strokeColor=none;fillColor=none;spacing=5;spacingTop=-20;whiteSpace=wrap;overflow=hidden;rounded=0;fontSize=10;" vertex="1" parent="1">
                    <mxGeometry x="2400" y="435" width="70" height="15" as="geometry"/>
                </mxCell>
                <mxCell id="118" value="" style="rounded=0;whiteSpace=wrap;html=1;fillColor=#dae8fc;strokeColor=#6c8ebf;gradientColor=#7ea6e0;" vertex="1" parent="1">
                    <mxGeometry x="2190" y="480" width="120" height="60" as="geometry"/>
                </mxCell>
                <mxCell id="119" value="" style="rounded=0;whiteSpace=wrap;html=1;fillColor=#dae8fc;strokeColor=#6c8ebf;gradientColor=#7ea6e0;" vertex="1" parent="1">
                    <mxGeometry x="2550" y="475" width="120" height="60" as="geometry"/>
                </mxCell>
                <mxCell id="124" value="&lt;h1 style=&quot;font-size: 10px;&quot;&gt;si&lt;/h1&gt;" style="text;html=1;strokeColor=none;fillColor=none;spacing=5;spacingTop=-20;whiteSpace=wrap;overflow=hidden;rounded=0;fontSize=10;" vertex="1" parent="1">
                    <mxGeometry x="2570" y="425" width="40" height="15" as="geometry"/>
                </mxCell>
                <mxCell id="125" value="&lt;h1 style=&quot;font-size: 10px;&quot;&gt;no&lt;/h1&gt;" style="text;html=1;strokeColor=none;fillColor=none;spacing=5;spacingTop=-20;whiteSpace=wrap;overflow=hidden;rounded=0;fontSize=10;" vertex="1" parent="1">
                    <mxGeometry x="2270" y="425" width="40" height="15" as="geometry"/>
                </mxCell>
                <mxCell id="129" style="edgeStyle=none;html=1;entryX=0.5;entryY=0;entryDx=0;entryDy=0;" edge="1" parent="1" source="126" target="128">
                    <mxGeometry relative="1" as="geometry">
                        <Array as="points">
                            <mxPoint x="2250" y="560"/>
                            <mxPoint x="2430" y="560"/>
                        </Array>
                    </mxGeometry>
                </mxCell>
                <mxCell id="131" style="edgeStyle=none;html=1;exitX=0.5;exitY=1;exitDx=0;exitDy=0;" edge="1" parent="1" source="126">
                    <mxGeometry relative="1" as="geometry">
                        <mxPoint x="2250.219512195122" y="540" as="targetPoint"/>
                    </mxGeometry>
                </mxCell>
                <mxCell id="126" value="&lt;h1 style=&quot;font-size: 10px;&quot;&gt;cafe + agua = cafe con agua&lt;/h1&gt;" style="text;html=1;strokeColor=none;fillColor=none;spacing=5;spacingTop=-20;whiteSpace=wrap;overflow=hidden;rounded=0;fontSize=10;" vertex="1" parent="1">
                    <mxGeometry x="2200" y="497.5" width="100" height="42.5" as="geometry"/>
                </mxCell>
                <mxCell id="130" style="edgeStyle=none;html=1;entryX=0.5;entryY=0;entryDx=0;entryDy=0;" edge="1" parent="1" source="127" target="128">
                    <mxGeometry relative="1" as="geometry">
                        <Array as="points">
                            <mxPoint x="2610" y="560"/>
                            <mxPoint x="2430" y="560"/>
                        </Array>
                    </mxGeometry>
                </mxCell>
                <mxCell id="127" value="&lt;h1 style=&quot;font-size: 10px;&quot;&gt;cafe + leche = cafe con leche&lt;/h1&gt;" style="text;html=1;strokeColor=none;fillColor=none;spacing=5;spacingTop=-20;whiteSpace=wrap;overflow=hidden;rounded=0;fontSize=10;" vertex="1" parent="1">
                    <mxGeometry x="2560" y="497.5" width="100" height="32.5" as="geometry"/>
                </mxCell>
                <mxCell id="139" style="edgeStyle=none;html=1;" edge="1" parent="1" source="128" target="133">
                    <mxGeometry relative="1" as="geometry"/>
                </mxCell>
                <mxCell id="141" style="edgeStyle=none;html=1;entryX=1;entryY=0.5;entryDx=0;entryDy=0;" edge="1" parent="1" source="128" target="134">
                    <mxGeometry relative="1" as="geometry"/>
                </mxCell>
                <mxCell id="128" value="" style="rhombus;whiteSpace=wrap;html=1;shadow=1;fillColor=#a20025;strokeColor=#6F0000;fontColor=#ffffff;" vertex="1" parent="1">
                    <mxGeometry x="2360" y="575" width="140" height="80" as="geometry"/>
                </mxCell>
                <mxCell id="132" value="&lt;h1 style=&quot;font-size: 10px;&quot;&gt;caliente ?&lt;/h1&gt;" style="text;html=1;strokeColor=none;fillColor=none;spacing=5;spacingTop=-20;whiteSpace=wrap;overflow=hidden;rounded=0;fontSize=10;" vertex="1" parent="1">
                    <mxGeometry x="2400" y="610" width="60" height="10" as="geometry"/>
                </mxCell>
                <mxCell id="140" style="edgeStyle=none;html=1;entryX=0.5;entryY=0;entryDx=0;entryDy=0;" edge="1" parent="1" source="133" target="138">
                    <mxGeometry relative="1" as="geometry"/>
                </mxCell>
                <mxCell id="133" value="temperatura == caliente&amp;nbsp;" style="rounded=0;whiteSpace=wrap;html=1;fillColor=#dae8fc;strokeColor=#6c8ebf;gradientColor=#7ea6e0;" vertex="1" parent="1">
                    <mxGeometry x="2540" y="585" width="120" height="60" as="geometry"/>
                </mxCell>
                <mxCell id="143" style="edgeStyle=none;html=1;entryX=0.5;entryY=0;entryDx=0;entryDy=0;" edge="1" parent="1" source="134" target="142">
                    <mxGeometry relative="1" as="geometry"/>
                </mxCell>
                <mxCell id="134" value="" style="rounded=0;whiteSpace=wrap;html=1;fillColor=#dae8fc;strokeColor=#6c8ebf;gradientColor=#7ea6e0;" vertex="1" parent="1">
                    <mxGeometry x="2197.5" y="585" width="120" height="60" as="geometry"/>
                </mxCell>
                <mxCell id="135" value="&lt;h1 style=&quot;font-size: 10px;&quot;&gt;temp.Ambiente&lt;/h1&gt;" style="text;html=1;strokeColor=none;fillColor=none;spacing=5;spacingTop=-20;whiteSpace=wrap;overflow=hidden;rounded=0;fontSize=10;" vertex="1" parent="1">
                    <mxGeometry x="2215" y="610" width="80" height="10" as="geometry"/>
                </mxCell>
                <mxCell id="157" style="edgeStyle=none;html=1;entryX=0.5;entryY=0;entryDx=0;entryDy=0;" edge="1" parent="1" source="138" target="154">
                    <mxGeometry relative="1" as="geometry">
                        <Array as="points">
                            <mxPoint x="2600" y="920"/>
                            <mxPoint x="2550" y="920"/>
                        </Array>
                    </mxGeometry>
                </mxCell>
                <mxCell id="138" value="caliente + cafe = maquina espresso" style="rounded=0;whiteSpace=wrap;html=1;fillColor=#dae8fc;strokeColor=#6c8ebf;gradientColor=#7ea6e0;" vertex="1" parent="1">
                    <mxGeometry x="2540" y="680" width="120" height="60" as="geometry"/>
                </mxCell>
                <mxCell id="148" style="edgeStyle=none;html=1;entryX=0.5;entryY=0;entryDx=0;entryDy=0;" edge="1" parent="1" source="142" target="145">
                    <mxGeometry relative="1" as="geometry"/>
                </mxCell>
                <mxCell id="142" value="hielo = 1&lt;br&gt;cafe.hielo (1)&amp;nbsp;" style="rounded=0;whiteSpace=wrap;html=1;fillColor=#dae8fc;strokeColor=#6c8ebf;gradientColor=#7ea6e0;" vertex="1" parent="1">
                    <mxGeometry x="2197.5" y="680" width="120" height="60" as="geometry"/>
                </mxCell>
                <mxCell id="149" style="edgeStyle=none;html=1;entryX=0.5;entryY=0;entryDx=0;entryDy=0;" edge="1" parent="1" source="145" target="154">
                    <mxGeometry relative="1" as="geometry">
                        <Array as="points">
                            <mxPoint x="2150" y="820"/>
                            <mxPoint x="2150" y="890"/>
                            <mxPoint x="2150" y="920"/>
                            <mxPoint x="2260" y="920"/>
                            <mxPoint x="2410" y="920"/>
                            <mxPoint x="2550" y="920"/>
                        </Array>
                    </mxGeometry>
                </mxCell>
                <mxCell id="153" style="edgeStyle=none;html=1;entryX=0.028;entryY=0.415;entryDx=0;entryDy=0;entryPerimeter=0;" edge="1" parent="1" source="145" target="151">
                    <mxGeometry relative="1" as="geometry"/>
                </mxCell>
                <mxCell id="145" value="" style="rhombus;whiteSpace=wrap;html=1;shadow=1;fillColor=#a20025;strokeColor=#6F0000;fontColor=#ffffff;" vertex="1" parent="1">
                    <mxGeometry x="2187.5" y="780" width="140" height="80" as="geometry"/>
                </mxCell>
                <mxCell id="146" value="&lt;h1 style=&quot;font-size: 10px;&quot;&gt;frio ?&lt;/h1&gt;" style="text;html=1;strokeColor=none;fillColor=none;spacing=5;spacingTop=-20;whiteSpace=wrap;overflow=hidden;rounded=0;fontSize=10;" vertex="1" parent="1">
                    <mxGeometry x="2240" y="820" width="60" height="10" as="geometry"/>
                </mxCell>
                <mxCell id="150" value="&lt;h1 style=&quot;font-size: 10px;&quot;&gt;no&lt;/h1&gt;" style="text;html=1;strokeColor=none;fillColor=none;spacing=5;spacingTop=-20;whiteSpace=wrap;overflow=hidden;rounded=0;fontSize=10;" vertex="1" parent="1">
                    <mxGeometry x="2150" y="800" width="40" height="10" as="geometry"/>
                </mxCell>
                <mxCell id="156" style="edgeStyle=none;html=1;entryX=0.5;entryY=0;entryDx=0;entryDy=0;" edge="1" parent="1" source="151" target="154">
                    <mxGeometry relative="1" as="geometry">
                        <Array as="points">
                            <mxPoint x="2430" y="920"/>
                            <mxPoint x="2550" y="920"/>
                        </Array>
                    </mxGeometry>
                </mxCell>
                <mxCell id="151" value="hielo += 1&lt;br&gt;&amp;nbsp;cafe.hielo (suficiente)&amp;nbsp;" style="rounded=0;whiteSpace=wrap;html=1;fillColor=#dae8fc;strokeColor=#6c8ebf;gradientColor=#7ea6e0;" vertex="1" parent="1">
                    <mxGeometry x="2370" y="795" width="120" height="60" as="geometry"/>
                </mxCell>
                <mxCell id="162" style="edgeStyle=none;html=1;entryX=0;entryY=0.5;entryDx=0;entryDy=0;" edge="1" parent="1" source="154" target="159">
                    <mxGeometry relative="1" as="geometry"/>
                </mxCell>
                <mxCell id="168" style="edgeStyle=none;html=1;entryX=0.5;entryY=0;entryDx=0;entryDy=0;" edge="1" parent="1" source="154" target="114">
                    <mxGeometry relative="1" as="geometry">
                        <Array as="points">
                            <mxPoint x="2270" y="970"/>
                        </Array>
                    </mxGeometry>
                </mxCell>
                <mxCell id="154" value="" style="rhombus;whiteSpace=wrap;html=1;shadow=1;fillColor=#a20025;strokeColor=#6F0000;fontColor=#ffffff;" vertex="1" parent="1">
                    <mxGeometry x="2480" y="930" width="140" height="80" as="geometry"/>
                </mxCell>
                <mxCell id="155" value="&lt;h1 style=&quot;font-size: 10px;&quot;&gt;Azucar ?&lt;/h1&gt;" style="text;html=1;strokeColor=none;fillColor=none;spacing=5;spacingTop=-20;whiteSpace=wrap;overflow=hidden;rounded=0;fontSize=10;" vertex="1" parent="1">
                    <mxGeometry x="2520" y="970" width="60" height="10" as="geometry"/>
                </mxCell>
                <mxCell id="164" style="edgeStyle=none;html=1;entryX=0.5;entryY=0;entryDx=0;entryDy=0;" edge="1" parent="1" source="159" target="163">
                    <mxGeometry relative="1" as="geometry"/>
                </mxCell>
                <mxCell id="159" value="cucharada==azucar&amp;nbsp;&lt;br&gt;&amp;nbsp;" style="rounded=0;whiteSpace=wrap;html=1;fillColor=#dae8fc;strokeColor=#6c8ebf;gradientColor=#7ea6e0;" vertex="1" parent="1">
                    <mxGeometry x="2670" y="940" width="120" height="60" as="geometry"/>
                </mxCell>
                <mxCell id="165" style="edgeStyle=none;html=1;entryX=1;entryY=0.5;entryDx=0;entryDy=0;" edge="1" parent="1" source="163" target="114">
                    <mxGeometry relative="1" as="geometry">
                        <Array as="points">
                            <mxPoint x="2730" y="1195"/>
                        </Array>
                    </mxGeometry>
                </mxCell>
                <mxCell id="163" value="cucharada += 1&lt;br&gt;&amp;nbsp;cucharada.azucar (suficiente)&amp;nbsp;" style="rounded=0;whiteSpace=wrap;html=1;fillColor=#dae8fc;strokeColor=#6c8ebf;gradientColor=#7ea6e0;" vertex="1" parent="1">
                    <mxGeometry x="2670" y="1040" width="120" height="60" as="geometry"/>
                </mxCell>
                <mxCell id="169" value="&lt;h1 style=&quot;font-size: 10px;&quot;&gt;si&lt;/h1&gt;" style="text;html=1;strokeColor=none;fillColor=none;spacing=5;spacingTop=-20;whiteSpace=wrap;overflow=hidden;rounded=0;fontSize=10;" vertex="1" parent="1">
                    <mxGeometry x="2320" y="800" width="40" height="10" as="geometry"/>
                </mxCell>
                <mxCell id="172" value="&lt;h1 style=&quot;font-size: 10px;&quot;&gt;no&lt;/h1&gt;" style="text;html=1;strokeColor=none;fillColor=none;spacing=5;spacingTop=-20;whiteSpace=wrap;overflow=hidden;rounded=0;fontSize=10;" vertex="1" parent="1">
                    <mxGeometry x="2330" y="600" width="40" height="10" as="geometry"/>
                </mxCell>
                <mxCell id="174" value="&lt;h1 style=&quot;font-size: 10px;&quot;&gt;si&lt;/h1&gt;" style="text;html=1;strokeColor=none;fillColor=none;spacing=5;spacingTop=-20;whiteSpace=wrap;overflow=hidden;rounded=0;fontSize=10;" vertex="1" parent="1">
                    <mxGeometry x="2510" y="600" width="40" height="10" as="geometry"/>
                </mxCell>
                <mxCell id="175" value="&lt;h1 style=&quot;font-size: 10px;&quot;&gt;si&lt;/h1&gt;" style="text;html=1;strokeColor=none;fillColor=none;spacing=5;spacingTop=-20;whiteSpace=wrap;overflow=hidden;rounded=0;fontSize=10;" vertex="1" parent="1">
                    <mxGeometry x="2630" y="950" width="40" height="10" as="geometry"/>
                </mxCell>
                <mxCell id="178" value="&lt;h1 style=&quot;font-size: 10px;&quot;&gt;no&lt;/h1&gt;" style="text;html=1;strokeColor=none;fillColor=none;spacing=5;spacingTop=-20;whiteSpace=wrap;overflow=hidden;rounded=0;fontSize=10;" vertex="1" parent="1">
                    <mxGeometry x="2390" y="960" width="40" height="10" as="geometry"/>
                </mxCell>
            </root>
        </mxGraphModel>
    </diagram>
</mxfile>